<?xml version="1.0" standalone="no"?><!DOCTYPE svg PUBLIC "-//W3C//DTD SVG 1.1//EN" "http://www.w3.org/Graphics/SVG/1.1/DTD/svg11.dtd"><svg t="1610801957120" class="icon" viewBox="0 0 1101 1024" version="1.1" xmlns="http://www.w3.org/2000/svg" p-id="4911" xmlns:xlink="http://www.w3.org/1999/xlink" width="137.625" height="128"><defs><style type="text/css"></style></defs><path d="M686.682353 317.52605h34.420168v85.189916h-34.420168z" fill="#FAEDD6" p-id="4912"></path><path d="M860.504202 524.047059l-309.781513-223.731093-309.781513 223.731093v34.420168h86.050421v-34.420168l223.731092-154.890756 223.731093 154.890756v34.420168h86.05042z" fill="#36C9A3" p-id="4913"></path><path d="M326.991597 1005.929412v-473.277311l223.731092-163.495798 223.731093 163.495798v473.277311" fill="#FFFFFF" p-id="4914"></path><path d="M629.028571 519.744538c-17.210084-17.210084-45.606723-17.210084-62.816806 0L550.722689 536.094118l-15.489076-15.489076c-17.210084-17.210084-45.606723-17.210084-62.816806 0s-17.210084 45.606723 0 62.816807l15.489075 15.489075 62.816807 62.816807 62.816807-62.816807 15.489075-15.489075c17.210084-18.070588 17.210084-45.606723 0-63.677311zM326.991597 782.198319h447.462185v222.870589H326.991597z" fill="#FA004B" p-id="4915"></path><path d="M481.882353 1004.208403V729.707563h137.680672v274.50084" fill="#FAEDD6" p-id="4916"></path><path d="M0 988.719328h1101.445378v33.559664H0z" fill="#232323" p-id="4917"></path><path d="M1083.37479 885.458824h-15.489076v-34.420169h-34.420168v34.420169H998.184874v-34.420169h-34.420168v34.420169h-33.559664v-34.420169h-33.559664v34.420169h-38.722689v-34.420169h-33.559664v34.420169H808.87395v33.559663h15.489075v51.630252h33.559664v-51.630252h38.722689v51.630252h33.559664v-51.630252h33.559664v51.630252h34.420168v-51.630252h35.280672v51.630252h34.420168v-51.630252h15.489076zM292.571429 885.458824h-15.489076v-34.420169h-33.559664v34.420169h-38.722689v-34.420169h-33.559664v34.420169H137.680672v-34.420169h-34.420168v34.420169H67.979832v-34.420169h-34.420168v34.420169H18.070588v33.559663h15.489076v51.630252h34.420168v-51.630252H103.260504v51.630252h34.420168v-51.630252h33.559664v51.630252h33.559664v-51.630252h38.722689v51.630252h33.559664v-51.630252H292.571429z" fill="#36C9A3" p-id="4918"></path><path d="M515.442017 867.388235h34.420168v33.559664h-34.420168z" fill="#232323" p-id="4919"></path><path d="M550.722689 348.504202L309.781513 514.581513v456.067226h34.420168V799.408403h119.610084v171.240336h33.559664V747.778151h105.842016v222.870588H636.773109V799.408403h120.470588v171.240336h34.420169v-456.067226L550.722689 348.504202zM637.633613 765.848739v-51.630252H463.811765v51.630252H344.201681V532.652101l206.521008-142.843698 206.521008 142.843698V765.848739H637.633613z" fill="#232323" p-id="4920"></path><path d="M875.993277 573.956303H808.87395v-33.559664h33.559663v-7.744538L550.722689 320.968067 259.011765 532.652101v7.744538H292.571429v33.559664h-67.119328v-58.514286L550.722689 279.663866l325.270588 235.778151z" fill="#232323" p-id="4921"></path><path d="M550.722689 684.961345L460.369748 594.608403c-11.186555-11.186555-18.070588-26.67563-18.070588-43.02521s6.023529-31.838655 18.070588-43.02521c11.186555-11.186555 26.67563-18.070588 43.02521-18.070588s31.838655 6.023529 43.02521 18.070588l3.442017 3.442017 3.442017-3.442017c24.094118-24.094118 62.816807-24.094118 86.910924 0 11.186555 11.186555 18.070588 26.67563 18.070588 43.02521s-6.023529 31.838655-18.070588 43.02521L550.722689 684.961345z m-47.327731-160.914286c-7.744538 0-14.628571 2.581513-19.791597 7.744538-5.163025 5.163025-7.744538 12.047059-7.744537 19.791596 0 7.744538 2.581513 14.628571 7.744537 19.791597l66.258824 66.258823 66.258823-66.258823c5.163025-5.163025 7.744538-12.047059 7.744538-19.791597 0-7.744538-2.581513-14.628571-7.744538-19.791596-10.32605-10.32605-28.396639-10.32605-38.722689 0L550.722689 559.327731l-27.536134-27.536134c-5.163025-5.163025-12.047059-7.744538-19.791597-7.744538zM671.193277 302.036975h69.700841V335.596639H671.193277z" fill="#232323" p-id="4922"></path><path d="M679.798319 234.057143c1.721008-8.605042 10.32605-14.628571 18.931093-12.907563h0.860504c1.721008-8.605042 10.32605-14.628571 18.931092-12.907563s14.628571 10.32605 12.907563 18.931092l-6.023529 31.838656-31.838655-6.02353c-9.465546-1.721008-15.489076-10.32605-13.768068-18.931092zM762.406723 120.470588c8.605042 0 12.907563 6.884034 12.907563 16.34958v0.860504c15.489076 0 19.791597 6.884034 19.791596 16.34958 0 8.605042-5.163025 16.34958-14.628571 16.34958H748.638655l-1.721008-32.69916c0.860504-9.465546 6.884034-17.210084 15.489076-17.210084zM659.146218 55.932773c4.302521-7.744538 12.047059-7.744538 19.791597-3.442017 7.744538-15.489076 15.489076-14.628571 23.233614-10.32605 7.744538 4.302521 12.047059 12.047059 7.744537 19.791597L697.008403 89.492437l-30.117647-13.768067c-7.744538-3.442017-12.047059-12.047059-7.744538-19.791597zM776.17479 1.721008c8.605042-0.860504 12.907563 5.163025 14.628571 14.628572V17.210084c17.210084-2.581513 20.652101 4.302521 22.37311 12.907563 0.860504 8.605042-2.581513 16.34958-12.047059 18.070588l-30.978151 4.302521-6.02353-32.699159c-1.721008-8.605042 3.442017-17.210084 12.047059-18.070589z" fill="#FA004B" p-id="4923"></path></svg>